<svg width="56" height="56" fill="none" xmlns="http://www.w3.org/2000/svg">
  <rect width="56" height="56" rx="12" fill="#0038A8"/>
  <path d="M18 36.5V19.5H21.8C23.5 19.5 24.9 19.9 25.9 20.7C26.9 21.5 27.4 22.6 27.4 24C27.4 25.4 26.9 26.5 25.9 27.3C24.9 28.1 23.5 28.5 21.8 28.5H21V36.5H18ZM21 25.8H21.8C22.5 25.8 23.1 25.6 23.5 25.2C23.9 24.8 24.1 24.3 24.1 23.7C24.1 23.1 23.9 22.6 23.5 22.2C23.1 21.8 22.5 21.6 21.8 21.6H21V25.8Z" fill="#FCD116"/>
  <path d="M29 36.5V19.5H32V24.8H37V19.5H40V36.5H37V27.5H32V36.5H29Z" fill="#FCD116"/>
</svg>
